Patient4_TMGait_0pt3_03_right_04_GRF.mot
version=1
nRows=39
nColumns=19
inDegrees=no
endheader
time	F1x	F1y	F1z	M1x	M1y	M1z	F2x	F2y	F2z	M2x	M2y	M2z	EC1x	EC1y	EC1z	EC2x	EC2y	EC2z
7.44	12.9483	770.0254	33.9213	-290.6355	-26.2445	721.7916	-7.6158	5.9032	-2.1571	2.8145	3.666	8.4596	-0.0592	0.0182	-0.0073	-0.0462	0.0165	0.9585
7.4591	11.8159	790.4938	37.1242	-297.7445	-29.1901	742.0109	-5.1507	4.8478	-1.4784	2.2399	2.5494	6.6144	-0.0592	0.0182	-0.0073	-0.0462	0.0165	0.9585
7.4781	10.499	812.2619	40.4565	-305.1946	-32.2939	763.2997	-3.0476	3.9939	-0.89557	1.7584	1.5879	5.0951	-0.0592	0.0182	-0.0073	-0.0462	0.0165	0.9585
7.4972	9.1649	832.9781	43.6828	-312.1289	-35.3046	783.3224	-1.4375	3.381	-0.44622	1.3995	0.84353	3.9825	-0.0592	0.0182	-0.0073	-0.0462	0.0165	0.9585
7.5163	7.9983	850.2602	46.6306	-317.6891	-38.0077	799.749	-0.31875	2.9885	-0.13084	1.159	0.31765	3.2509	-0.0592	0.0182	-0.0073	-0.0462	0.0165	0.9585
7.5354	7.1502	862.0586	49.1686	-321.1484	-40.2332	810.5977	0.38077	2.7606	0.067069	1.0126	-0.020263	2.8234	-0.0592	0.0182	-0.0073	-0.0462	0.0165	0.9585
7.5544	6.7231	866.9673	51.1783	-322.0274	-41.8378	814.5199	0.75853	2.6212	0.17501	0.92339	-0.21087	2.5885	-0.0592	0.0182	-0.0073	-0.0462	0.0165	0.9585
7.5735	6.7749	864.409	52.5673	-320.1619	-42.7156	810.9646	0.91327	2.4745	0.2244	0.84765	-0.29993	2.4053	-0.0592	0.0182	-0.0073	-0.0462	0.0165	0.9585
7.5926	7.3387	854.7287	53.2801	-315.7304	-42.8009	800.2473	0.93457	2.2101	0.24408	0.73865	-0.33208	2.125	-0.0592	0.0182	-0.0073	-0.0462	0.0165	0.9585
7.6116	8.4512	839.1473	53.3028	-309.229	-42.0595	783.4962	0.89618	1.7128	0.25679	0.54957	-0.34897	1.6075	-0.0592	0.0182	-0.0073	-0.0462	0.0165	0.9585
7.6307	10.1572	819.5292	52.6787	-301.3778	-40.5079	762.4484	0.85316	0.87692	0.27861	0.23833	-0.38354	0.72761	-0.0592	0.0182	-0.0073	-0.0462	0.0165	0.9585
7.6498	12.508	798.0386	51.5217	-292.9881	-38.2284	739.1405	0.84482	-0.37442	0.32113	-0.22589	-0.45876	-0.61121	-0.0592	0.0182	-0.0073	-0.0462	0.0165	0.9585
7.6689	15.5314	776.7886	50.0017	-284.831	-35.3627	715.5836	0.89911	-2.061	0.3923	-0.85224	-0.58872	-2.4393	-0.0592	0.0182	-0.0073	-0.0462	0.0165	0.9585
7.6879	19.2067	757.5398	48.3095	-277.53	-32.09	693.4777	1.0306	-4.102	0.49429	-1.6118	-0.77509	-4.6696	-0.0592	0.0182	-0.0073	-0.0462	0.0165	0.9585
7.707	23.4725	741.5247	46.6301	-271.5028	-28.6032	674.0518	1.2383	-6.2481	0.61808	-2.4123	-1.0054	-7.0257	-0.0592	0.0182	-0.0073	-0.0462	0.0165	0.9585
7.7261	28.2194	729.3676	45.1377	-266.9345	-25.1048	657.9984	1.5006	-8.0065	0.73867	-3.0697	-1.2454	-8.9623	-0.0592	0.0182	-0.0073	-0.0462	0.0165	0.9585
7.7451	33.2887	721.0592	43.9849	-263.7743	-21.7966	645.4571	1.7676	-8.5672	0.81391	-3.2823	-1.4296	-9.5916	-0.0592	0.0182	-0.0073	-0.0462	0.0165	0.9585
7.7642	38.4883	715.9858	43.2911	-261.7497	-18.8656	636.0321	1.9482	-6.7382	0.78625	-2.6081	-1.4588	-7.6082	-0.0592	0.0182	-0.0073	-0.0462	0.0165	0.9585
7.7833	43.5835	712.9687	43.129	-260.3849	-16.477	628.8295	1.9036	-0.93182	0.58036	-0.45931	-1.1917	-1.2677	-0.0592	0.0182	-0.0073	-0.0462	0.0165	0.9585
7.8024	48.2624	710.2716	43.5137	-259.009	-14.7761	622.4786	1.4454	10.7561	0.10238	3.8702	-0.44494	11.5235	-0.0592	0.0182	-0.0073	-0.0462	0.0165	0.9585
7.8214	52.1582	705.7114	44.3647	-256.8052	-13.8434	615.2124	0.33731	30.3168	-0.75003	11.1213	0.99497	32.961	-0.0592	0.0182	-0.0073	-0.0462	0.0165	0.9585
7.8405	54.9041	696.8752	45.4752	-252.8959	-13.6497	605.0374	-1.6947	59.3862	-2.0726	21.9069	3.3457	64.8574	-0.0592	0.0182	-0.0073	-0.0462	0.0165	0.9585
7.8596	56.1761	681.4025	46.5449	-246.4494	-14.0699	589.9624	-5.0053	98.596	-3.9165	36.4698	6.7954	107.9266	-0.0592	0.0182	-0.0073	-0.0462	0.0165	0.9585
7.8786	55.7724	657.4688	47.2274	-236.8571	-14.892	568.3949	-9.9663	146.7731	-6.2449	54.3836	11.4272	160.8975	-0.0592	0.0182	-0.0073	-0.0462	0.0165	0.9585
7.8977	53.712	624.4076	47.1919	-223.9529	-15.8265	539.6574	-16.4219	200.5372	-9.1061	74.3756	17.2143	220.0564	-0.0592	0.0182	-0.0073	-0.0462	0.0165	0.9585
7.9168	50.3087	583.15	46.2462	-208.1586	-16.588	504.3537	-23.5962	254.8817	-12.7659	94.5357	24.1082	279.8603	-0.0592	0.0182	-0.0073	-0.0462	0.0165	0.9585
7.9359	46.1312	536.1483	44.4338	-190.4341	-16.9877	464.3337	-30.5741	305.9627	-17.1079	113.4063	31.6122	336.0115	-0.0592	0.0182	-0.0073	-0.0462	0.0165	0.9585
7.9549	41.8106	486.5816	41.9791	-171.9765	-16.9546	422.0933	-36.7863	352.5323	-21.6618	130.5392	39.0049	387.0844	-0.0592	0.0182	-0.0073	-0.0462	0.0165	0.9585
7.974	37.8018	437.343	39.1048	-153.8512	-16.4741	379.9789	-41.9329	394.72	-25.7937	146.0259	45.505	433.1922	-0.0592	0.0182	-0.0073	-0.0462	0.0165	0.9585
7.9931	34.2992	390.5735	35.9479	-136.8246	-15.5602	339.7916	-45.838	432.8929	-29.0384	160.0346	50.5671	474.7235	-0.0592	0.0182	-0.0073	-0.0462	0.0165	0.9585
8.0121	31.2877	347.6446	32.6191	-121.3616	-14.2905	302.7316	-48.4435	467.1693	-31.2661	172.611	54.042	511.8165	-0.0592	0.0182	-0.0073	-0.0462	0.0165	0.9585
8.0312	28.621	309.2344	29.2437	-107.6641	-12.8082	269.4307	-49.8103	497.3525	-32.6292	183.6604	56.1133	544.2825	-0.0592	0.0182	-0.0073	-0.0462	0.0165	0.9585
8.0503	26.1235	275.4612	25.9467	-95.7277	-11.2743	240.041	-50.0926	523.1525	-33.414	193.0458	57.1416	571.8196	-0.0592	0.0182	-0.0073	-0.0462	0.0165	0.9585
8.0694	23.6695	246.0471	22.8393	-85.4081	-9.8272	214.3678	-49.4847	544.5612	-33.8766	200.7444	57.4731	594.4029	-0.0592	0.0182	-0.0073	-0.0462	0.0165	0.9585
8.0884	21.2105	220.4238	20.0094	-76.4648	-8.5615	191.9578	-48.163	562.0088	-34.1898	206.9153	57.3586	612.4568	-0.0592	0.0182	-0.0073	-0.0462	0.0165	0.9585
8.1075	18.7754	197.7994	17.4947	-68.5884	-7.5044	172.1534	-46.2716	576.2838	-34.427	211.8682	56.9352	626.7735	-0.0592	0.0182	-0.0073	-0.0462	0.0165	0.9585
8.1266	16.4305	177.3334	15.2802	-61.464	-6.6263	154.2448	-43.9352	588.3643	-34.5874	215.9953	56.2552	638.3473	-0.0592	0.0182	-0.0073	-0.0462	0.0165	0.9585
8.1456	14.2238	158.3921	13.3242	-54.8614	-5.8836	137.6915	-41.264	599.2007	-34.6459	219.6825	55.3411	648.1608	-0.0592	0.0182	-0.0073	-0.0462	0.0165	0.9585
8.1647	12.1815	140.6727	11.5938	-48.6758	-5.2483	122.2272	-38.3467	609.5916	-34.5866	223.2577	54.2165	657.0594	-0.0592	0.0182	-0.0073	-0.0462	0.0165	0.9585
